# xmcd CD database file
#
# Track frame offsets:
#	187
#	48820
#	61960
#	98075
#	130390
#	151522
#	169737
#	201660
#	222430
#	250667
#	277947
#
# Disc length: 4137 seconds
#
# Revision: 3
# Processed by: cddbd v1.5.1PL0 Copyright (c) Steve Scherf et al.
# Submitted via: CDex 1.51
#
DISCID=9510270b
DTITLE=King Crimson - Frame By Frame 1972-1974
DYEAR=1991
DGENRE=Progressive Rock
TTITLE0=Larks' Tongues In Aspic: Part One (Abridged)
TTITLE1=Book Of Saturday
TTITLE2=Easy Money
TTITLE3=Larks' Tongues In Aspic: Part Two
TTITLE4=The Night Watch
TTITLE5=The Great Deceiver
TTITLE6=Fracture (Abridged)
TTITLE7=Starless (Abridged)
TTITLE8=Red
TTITLE9=Fallen Angel
TTITLE10=One More Red Nightmare
EXTD=YEAR: 1991
EXTT0=
EXTT1=
EXTT2=
EXTT3=
EXTT4=
EXTT5=
EXTT6=
EXTT7=
EXTT8=
EXTT9=
EXTT10=
PLAYORDER=
